<svg xmlns="http://www.w3.org/2000/svg" version="1.1" xmlns:xlink="http://www.w3.org/1999/xlink" viewBox="0 0 200 200" width="200" height="200"><rect width="200" height="200" fill="url('#gradient')"></rect><defs><linearGradient id="gradient" gradientTransform="rotate(45 0.5 0.5)"><stop offset="0%" stop-color="#46e2fa"></stop><stop offset="100%" stop-color="#1b7974"></stop></linearGradient></defs><g><g fill="#3df383" transform="matrix(4.01743679163034,0,0,4.01743679163034,10.11180859926273,129.91110649416524)" stroke="#c2d02d" stroke-width="0.2"><path d="M3.65-14.22L6.28-8.05L8.90-14.22L12.60-14.22L8.02-5.11L8.02 0L4.54 0L4.54-5.11L-0.03-14.22L3.65-14.22ZM16.95-10.57L16.95 0L13.65 0L13.65-10.57L16.95-10.57ZM13.46-13.29L13.46-13.29Q13.46-13.99 13.96-14.44Q14.47-14.89 15.28-14.89Q16.09-14.89 16.60-14.44Q17.11-13.99 17.11-13.29Q17.11-12.59 16.60-12.14Q16.09-11.69 15.28-11.69Q14.47-11.69 13.96-12.14Q13.46-12.59 13.46-13.29ZM22.56-14.22L22.56-2.64L28.53-2.64L28.53 0L19.13 0L19.13-14.22L22.56-14.22ZM33.29-10.57L33.29 0L29.99 0L29.99-10.57L33.29-10.57ZM29.79-13.29L29.79-13.29Q29.79-13.99 30.30-14.44Q30.81-14.89 31.62-14.89Q32.43-14.89 32.94-14.44Q33.45-13.99 33.45-13.29Q33.45-12.59 32.94-12.14Q32.43-11.69 31.62-11.69Q30.81-11.69 30.30-12.14Q29.79-12.59 29.79-13.29ZM35.25-10.57L38.34-10.57L38.45-9.33Q39.54-10.76 41.46-10.76L41.46-10.76Q43.12-10.76 43.93-9.78Q44.75-8.79 44.78-6.81L44.78-6.81L44.78 0L41.47 0L41.47-6.67Q41.47-7.47 41.15-7.85Q40.83-8.22 39.98-8.22L39.98-8.22Q39.01-8.22 38.54-7.46L38.54-7.46L38.54 0L35.25 0L35.25-10.57Z"></path></g></g></svg>